<svg width="500" height="500" viewBox="0 0 500 500" fill="none" xmlns="http://www.w3.org/2000/svg">
<rect width="500" height="500" fill="white"/>
<rect x="52" y="248.99" width="280" height="280" transform="rotate(-45 52 248.99)" fill="#FFC857"/>
<path d="M235.931 235.075C243.724 242.789 256.276 242.789 264.069 235.075L366.985 133.215C379.684 120.646 370.784 99 352.916 99H147.084C129.216 99 120.316 120.646 133.015 133.215L235.931 235.075Z" fill="#0081AF"/>
<path d="M235.931 257.925C243.724 250.211 256.276 250.211 264.069 257.925L366.985 359.785C379.684 372.354 370.784 394 352.916 394H147.084C129.216 394 120.316 372.354 133.015 359.785L235.931 257.925Z" fill="#2C365E"/>
</svg>
