<?xml version="1.0" encoding="utf-8"?>
<!-- Generator: Adobe Illustrator 21.0.0, SVG Export Plug-In . SVG Version: 6.00 Build 0)  -->
<svg version="1.1" id="Layer_1" xmlns="http://www.w3.org/2000/svg" xmlns:xlink="http://www.w3.org/1999/xlink" x="0px" y="0px"
	 viewBox="0 0 720 161" style="enable-background:new 0 0 720 161;" xml:space="preserve">
<style type="text/css">
	.st0{fill:#5E6167;}
	.st1{fill:#9AA5AB;}
</style>
<path class="st0" d="M249.9,124.7c-1.4-0.2-2.8-0.4-4.2-0.6c-6.7-0.9-13-3-18.2-7.5c-5.3-4.6-8.4-10.5-9.4-17.5
	c-0.2-1.2-0.3-2.4-0.4-3.7c3.7-0.3,7.2-0.7,10.8-1c0.3,1.6,0.6,3.2,1,4.7c1.5,5.6,4.8,9.8,10.1,12.2c9,4.2,18.2,4.4,27.4,0.7
	c4.2-1.7,7.1-4.7,8.3-9.2c1.3-4.9-0.4-9.6-4.5-12.5c-2.7-2-5.9-3.1-9.1-4c-6.4-1.7-12.8-3.3-19.2-5c-3.9-1.1-7.7-2.4-11.1-4.5
	c-11.7-7.1-12.6-20.4-7-29.5c3.3-5.3,8.2-8.5,14.1-10.2c2.9-0.8,5.9-1.2,8.8-1.8c0.2,0,0.3-0.1,0.5-0.2c2.4,0,4.9,0,7.3,0
	c1.4,0.2,2.9,0.3,4.3,0.6c6.6,1.1,12.7,3.2,17.5,8c4.6,4.6,6.8,10.3,7.2,16.7c0,0.2,0,0.4,0,0.6c-3.7,0.3-7.2,0.5-10.9,0.8
	c-0.3-1.3-0.4-2.5-0.8-3.7c-1.7-6.4-5.8-10.4-12.2-11.9c-6.2-1.4-12.4-1.3-18.6,0.4c-3.1,0.9-5.6,2.7-7.5,5.3
	c-3.5,4.8-2.7,12.6,3.9,15.7c3.9,1.8,8,2.9,12.2,3.9c6.1,1.6,12.3,3.1,18.3,4.8c5,1.5,9.5,4.1,13,8c4.1,4.7,5.8,10.2,5.1,16.4
	c-1.3,11.3-8.1,18.1-18.4,21.8c-3,1.1-6.2,1.7-9.4,1.9c-0.2,0-0.3,0.1-0.5,0.2C255.5,124.7,252.7,124.7,249.9,124.7z"/>
<path class="st0" d="M73.1,36.6c3.8,0,7.6,0,11.5,0c0,25.5,0,51,0,76.6c14.3,0,28.4,0,42.7,0c0,3.4,0,6.7,0,10.2
	c-18.1,0-36.1,0-54.2,0C73.1,94.4,73.1,65.5,73.1,36.6z"/>
<path class="st1" d="M663.4,124.3c-16.4,0-32.8,0-49.2,0c-0.4,0-0.8,0-1.1-0.1c0.2-0.2,0.3-0.4,0.6-0.5c7.8-4.1,15.6-8.2,23.4-12.3
	c0.8-0.4,1.4-0.4,2.2,0c7.6,4.1,15.2,8.1,22.9,12.1c0.3,0.1,0.6,0.1,0.9,0.2c0.1,0.1,0.2,0.3,0.4,0.4
	C663.4,124.2,663.4,124.2,663.4,124.3z"/>
<path class="st1" d="M407.6,46.7c0-3.5,0-6.8,0-10.2c0.4,0,0.7,0,1.1,0c10.8,0,21.6,0,32.4,0c5.1,0,10.2,0.5,15,2.6
	c7.1,3.2,11.2,8.7,12.5,16.3c1.1,6.7-0.9,12.5-5.7,17.3c-1.4,1.4-3.3,2.4-4.9,3.6c-0.3,0.2-0.5,0.3-1,0.6c0.5,0.2,0.9,0.3,1.2,0.4
	c5.4,1.9,9.7,5,12.5,10.1c1.4,2.6,2.2,5.4,2.5,8.3c0.5,6.7-1.2,12.8-5.2,18.2c-2.7,3.5-6.2,5.6-10.3,7c-3.7,1.3-7.5,2-11.4,2.1
	c-10.3,0.1-20.5,0.2-30.8,0.2c-2.5,0-5,0-7.6,0c0-16.8,0-33.5,0-50.3c0.4,0,0.8,0,1.1,0c10.7,0,21.3,0,32-0.1c3.2,0,6.4-0.3,9.4-1.4
	c4.4-1.7,7.2-5.5,7.3-10.3c0.1-2.3-0.1-4.5-0.9-6.7c-1.8-4.5-5.2-6.8-9.9-7.2c-3.6-0.4-7.2-0.6-10.8-0.6c-9-0.1-18,0-27.1,0
	C408.4,46.7,408,46.7,407.6,46.7z M419.1,113.1c0.3,0,0.5,0,0.7,0c8,0,16.1,0,24.1-0.1c2.1,0,4.2-0.3,6.3-0.8c2.8-0.6,5.4-1.8,7.4-4
	c2.8-3.2,3.8-6.9,3.7-11.1c-0.2-5.8-3.8-10.7-9.2-12.5c-3.6-1.2-7.3-1.4-11-1.5c-7-0.1-13.9,0-20.9,0c-0.3,0-0.6,0-0.9,0
	C419.1,93.3,419.1,103.1,419.1,113.1z"/>
<path class="st1" d="M522.5,123.3c0-29,0-57.8,0-86.7c0.3,0,0.6-0.1,0.8-0.1c11,0,22.1-0.1,33.1,0.1c4.5,0,9,0.4,13.4,1.7
	c7.8,2.3,13.6,7.2,17.8,14c3.2,5.1,4.8,10.8,5.8,16.7c0.7,4.5,0.9,9,0.7,13.6c-0.3,8.6-2.2,16.9-6.5,24.5
	c-4.8,8.2-11.9,13.3-21.3,15.1c-4.1,0.8-8.1,1.2-12.3,1.2c-10.1,0-20.2,0-30.2,0C523.4,123.3,523,123.3,522.5,123.3z M533.9,46.7
	c0,22.2,0,44.3,0,66.4c0.4,0,0.7,0,1,0c5.7,0,11.3,0.1,17,0c3.5-0.1,7-0.3,10.5-0.8c6.7-1,11.8-4.4,15.1-10.5
	c3.1-5.7,4.3-11.8,4.7-18.2c0.2-4.6,0.2-9.3-0.5-13.9c-0.8-4.8-2.1-9.3-5-13.2c-3.1-4.3-6.9-7.7-12.2-8.8c-3.3-0.6-6.6-0.9-10-1
	c-6.6-0.2-13.1-0.1-19.7-0.1C534.5,46.7,534.3,46.7,533.9,46.7z"/>
<path class="st0" d="M336,123.3c-3.9,0-7.6,0-11.5,0c0-25.5,0-51,0-76.5c-9.6,0-19,0-28.5,0c0-3.4,0-6.8,0-10.1
	c22.9,0,45.7,0,68.6,0c0,3.4,0,6.7,0,10.1c-9.5,0-19,0-28.6,0C336,72.3,336,97.7,336,123.3z"/>
<path class="st1" d="M502.1,123.3c-3.8,0-7.6,0-11.4,0c0-28.9,0-57.7,0-86.7c3.8,0,7.5,0,11.4,0C502.1,65.5,502.1,94.4,502.1,123.3z
	"/>
<path class="st0" d="M663,123.7c-0.3-0.1-0.6,0-0.9-0.2c-7.6-4-15.3-8-22.9-12.1c-0.8-0.4-1.4-0.4-2.2,0
	c-7.8,4.1-15.6,8.2-23.4,12.3c-0.2,0.1-0.4,0.3-0.6,0.5c-0.1,0-0.2,0-0.3,0c0-0.1,0-0.1-0.1-0.2c3.1-5.4,6.1-10.8,9.2-16.3
	C627,98.9,632.1,90,637.2,81c0.2-0.3,0.4-0.6,0.6-1c0.1,0.2,0.3,0.3,0.4,0.5C646.4,94.9,654.7,109.3,663,123.7z"/>
<path class="st0" d="M638,79.3c-0.1,0.2-0.1,0.3-0.2,0.7c-8.5-14.8-17-29.5-25.6-44.3c0.4,0,0.6-0.1,0.9-0.1c16.3,0,32.6,0,48.9,0
	c0.2,0,0.8-0.4,0.7,0.3c-0.3,0.1-0.7,0.2-1,0.4c-7.7,4.1-15.5,8.1-23.2,12.2c-0.6,0.3-0.7,0.7-0.7,1.2c0,9.5,0,19.1,0,28.6
	C637.9,78.6,638,79,638,79.3z"/>
<path class="st1" d="M638,79.3c0-0.3-0.1-0.6-0.1-0.9c0-9.5,0-19.1,0-28.6c0-0.6,0.1-0.9,0.7-1.2c7.8-4.1,15.5-8.1,23.2-12.2
	c0.3-0.2,0.6-0.3,1-0.4c-1.3,2.3-2.5,4.6-3.9,6.9c-5.1,9.1-10.3,18.1-15.5,27.2c-1.6,2.9-3.3,5.8-4.9,8.7
	C638.4,78.9,638.2,79.1,638,79.3z"/>
<path class="st1" d="M612.7,124.1c0,0,0.1,0.1,0.1,0.2c-0.1,0-0.1,0-0.2,0C612.6,124.2,612.7,124.1,612.7,124.1z"/>
<path class="st0" d="M131.5,123.3c1.2-3,2.3-6,3.4-8.9c9.8-25.7,19.7-51.3,29.5-77c0.2-0.6,0.5-0.9,1.2-0.8c3.5,0,7,0,10.6,0
	c0.7,0,1.1,0.2,1.4,0.9c9.9,24.3,19.8,48.5,29.7,72.8c1.6,4,3.3,8,4.9,12c0.1,0.3,0.2,0.6,0.4,1.1c-0.4,0-0.7,0-1,0
	c-3.7,0-7.4,0-11.1,0c-0.7,0-1-0.2-1.2-0.9c-2.7-7.1-5.4-14.2-8.1-21.3C185.7,87,180.3,72.9,175,58.7c-1.5-4-2.7-8.1-4.1-12.2
	c-0.1-0.2-0.2-0.4-0.2-0.6c-0.7,2.8-1.2,5.7-2.2,8.4c-2.5,7.4-5.2,14.8-7.8,22.1c-2.9,8-5.9,15.9-8.8,23.9c-2.7,7.4-5.3,14.8-8,22.3
	c-0.1,0.3-0.2,0.5-0.3,0.8C139.7,123.3,135.7,123.3,131.5,123.3z"/>
</svg>
