<svg width="200" height="200" viewBox="0 0 200 200" fill="none" xmlns="http://www.w3.org/2000/svg">
<path d="M100 1.73698e-06L0 100L100 200L200 100L100 1.73698e-06Z" fill="#FFC857"/>
<path d="M92.9058 93.0636C96.8354 96.9788 103.165 96.9788 107.094 93.0636L158.989 41.3655C165.393 34.9863 160.905 24 151.895 24H48.1051C39.0952 24 34.6074 34.9863 41.0108 41.3655L92.9058 93.0636Z" fill="#0081AF"/>
<path d="M92.9058 104.896C96.8354 101.035 103.165 101.035 107.094 104.896L158.989 155.876C165.393 162.166 160.905 173 151.895 173H48.1051C39.0952 173 34.6074 162.166 41.0108 155.876L92.9058 104.896Z" fill="#2C365E"/>
</svg>
