<svg width="167" height="30" viewBox="0 0 167 30" fill="none" xmlns="http://www.w3.org/2000/svg">
<path d="M105 30V0H115.222C118.616 0 121.164 0.673077 122.868 2.01923C124.586 3.36538 125.445 5.35714 125.445 7.99451C125.445 9.3956 125.03 10.6387 124.199 11.7239C123.369 12.7953 122.238 13.6264 120.806 14.217C122.495 14.6703 123.827 15.5357 124.8 16.8132C125.788 18.0769 126.282 19.5879 126.282 21.3462C126.282 24.0385 125.373 26.1538 123.555 27.6923C121.737 29.2308 119.167 30 115.845 30H105ZM109.123 15.9684V26.7651H115.931C117.85 26.7651 119.36 26.2912 120.462 25.3434C121.579 24.3819 122.138 23.0632 122.138 21.3874C122.138 17.7747 120.09 15.9684 115.995 15.9684H109.123ZM105 12.7953H115.351C117.155 12.7953 118.594 12.3626 119.668 11.4973C120.756 10.6319 121.3 9.45742 121.3 7.9739C121.3 6.32555 120.799 5.13049 119.797 4.38874C118.794 3.63324 117.27 3.25549 115.222 3.25549H105V7.9739V12.7953Z" fill="#2C365E"/>
<path d="M136.827 30H132.703V0H136.827V30Z" fill="#2C365E"/>
<path d="M144.386 30V0H153.213C155.933 0 158.338 0.576923 160.428 1.73077C162.519 2.88462 164.129 4.5261 165.26 6.65522C166.406 8.78434 166.986 11.2294 167 13.9904V15.9066C167 18.7363 166.427 21.2157 165.282 23.3448C164.151 25.4739 162.526 27.1085 160.407 28.2486C158.302 29.3887 155.847 29.9725 153.041 30H144.386ZM148.51 3.25549V26.7651H152.848C156.026 26.7651 158.496 25.8173 160.257 23.9217C162.032 22.0261 162.92 19.3269 162.92 15.8242V14.0728C162.92 10.6662 162.082 8.02198 160.407 6.14011C158.746 4.24451 156.384 3.28297 153.32 3.25549H148.51Z" fill="#2C365E"/>
<path d="M4.16517 26.4505H19.0562V29.5989H0V0.40107H4.16517V26.4505Z" fill="#0081AF"/>
<path d="M34.9831 5.15374L25.4442 29.5989H21.1712L33.1703 0.40107H36.7959L48.8167 29.5989H44.5652L34.9831 5.15374Z" fill="#0081AF"/>
<path d="M62.3049 16.5842C58.7512 15.635 56.1615 14.4719 54.5357 13.0949C52.9243 11.7045 52.1186 9.99332 52.1186 7.96123C52.1186 5.66176 53.1041 3.76337 55.0752 2.26604C57.0607 0.755348 59.636 0 62.8013 0C64.9594 0 66.8801 0.387701 68.5635 1.1631C70.2612 1.9385 71.5704 3.00802 72.4912 4.37166C73.4264 5.73529 73.894 7.22594 73.894 8.84358H69.7288C69.7288 7.07888 69.1246 5.69519 67.916 4.69251C66.7075 3.67647 65.0026 3.16845 62.8013 3.16845C60.7583 3.16845 59.1613 3.58957 58.0103 4.43182C56.8736 5.26069 56.3053 6.41711 56.3053 7.90107C56.3053 9.09091 56.8449 10.1003 57.9239 10.9291C59.0174 11.7447 60.8662 12.4933 63.4703 13.1751C66.0888 13.857 68.1318 14.6123 69.5994 15.4412C71.0813 16.2567 72.1747 17.2126 72.8797 18.3088C73.5991 19.4051 73.9588 20.6952 73.9588 22.1791C73.9588 24.5455 72.966 26.4438 70.9806 27.8743C68.9951 29.2914 66.3406 30 63.0171 30C60.859 30 58.8447 29.619 56.9744 28.857C55.104 28.0816 53.6581 27.0254 52.6365 25.6885C51.6294 24.3516 51.1259 22.8342 51.1259 21.1364H55.291C55.291 22.9011 55.9888 24.2981 57.3844 25.3275C58.7944 26.3436 60.6719 26.8516 63.0171 26.8516C65.204 26.8516 66.8801 26.4372 68.0455 25.6083C69.2109 24.7794 69.7936 23.6497 69.7936 22.2193C69.7936 20.7888 69.2541 19.6858 68.175 18.9104C67.0959 18.1217 65.1392 17.3463 62.3049 16.5842Z" fill="#0081AF"/>
<path d="M101 3.56952H90.9V29.5989H86.778V3.56952H76.6996V0.40107H101V3.56952Z" fill="#0081AF"/>
</svg>
