<?xml version="1.0" encoding="utf-8"?>
<!-- Generator: Adobe Illustrator 21.0.0, SVG Export Plug-In . SVG Version: 6.00 Build 0)  -->
<svg version="1.1" id="Layer_1" xmlns="http://www.w3.org/2000/svg" xmlns:xlink="http://www.w3.org/1999/xlink" x="0px" y="0px"
	 viewBox="0 0 720 161" style="enable-background:new 0 0 720 161;" xml:space="preserve">
<style type="text/css">
	.st0{fill:#5E6167;}
</style>
<path class="st0" d="M673.9,130.3c-1.3,1.1-2.8,1.5-4.6,1.5c-15.8-0.1-31.6,0-47.3-0.1c-1.2,0-2.4-0.2-3.5-0.4
	c-0.8-0.1-1.3-0.7-1.3-1.6c0-0.9,0.1-1.8,1.1-2.2c0.7-0.2,1.4-0.5,2.2-0.5c14.6,0,29.2,0,43.8,0c1.7,0,3.5,0,5.2-0.1
	c1.7-0.1,3.3,0.1,4.4,1.6C673.9,129.2,673.9,129.8,673.9,130.3z"/>
<path class="st0" d="M645,125.1c-6.3,0-12.5,0-18.8,0c-4,0-7.5-3.6-7.3-7.6c0.1-1.9,1.1-3.4,2.2-4.8c3-3.9,6-7.7,9.1-11.6
	c3.2-4,6.4-8.1,9.6-12.1c0.5-0.6,1.1-1.1,1.8-1.3c0.7-0.3,1.4,0,1.8,0.7c0.4,0.7,0.4,1.4-0.1,2c-1.1,1.4-2.2,2.8-3.3,4.2
	c-2.8,3.5-5.6,7-8.4,10.6c-2.7,3.5-5.4,7-8.1,10.5c-0.7,0.8-1,1.7-0.9,2.8c0.2,1.5,0.9,2.3,2.4,2.7c3.4,0.9,6.9,0.6,10.4,0.6
	c4.7,0,9.4-0.1,14.1-0.1c4.9,0,9.7,0,14.6,0c1.7,0,3-0.6,3.8-2.1c0.8-1.5,0.4-3-0.7-4.3c-3.8-4.7-7.5-9.4-11.3-14.1
	c-4.9-6.2-9.8-12.5-14.7-18.7c-2.9-3.7-5.8-7.3-8.7-11c-4.1-5.2-8.3-10.4-12.4-15.8c-1.8-2.4-1.6-5.1-0.1-7.6
	c1.5-2.5,3.8-3.6,6.8-3.6c6,0.1,12,0.1,18,0.1c6.8,0,13.6-0.2,20.4-0.1c2.9,0,5.4,2.3,6.4,5.5c0.8,2.6,0,4.9-1.7,6.9
	c-4,5-7.9,10.1-11.8,15.1c-2.4,3.1-4.9,6.1-7.3,9.1c-0.5,0.7-1.1,1.4-2.1,1.3c-1.4-0.2-2.1-1.7-1.2-2.9c1.2-1.7,2.6-3.4,3.9-5.1
	c2.3-2.9,4.6-5.7,6.9-8.6c3-3.7,5.9-7.5,8.9-11.2c1.7-2.2,1.1-5-1.3-6.1c-0.3-0.1-0.7-0.2-1-0.2c-12.7-0.1-25.4-0.2-38.1-0.2
	c-2.6,0-4.3,1.7-4.1,4.2c0.1,0.8,0.5,1.7,1,2.4c3,4,6.1,7.9,9.2,11.8c2.8,3.5,5.6,6.9,8.4,10.3c2.2,2.8,4.3,5.6,6.5,8.4
	c1.8,2.3,3.8,4.6,5.6,6.9c2.7,3.4,5.3,6.9,8,10.3c2.6,3.3,5.2,6.6,7.8,9.8c1.8,2.2,2.9,4.5,2.3,7.4c-0.8,3.7-3.8,5.6-7.2,5.6
	C657.9,125.2,651.5,125.1,645,125.1C645,125.1,645,125.1,645,125.1z"/>
<path class="st0" d="M644.7,119.6c-3.5,0-7,0-10.5,0c-0.8,0-1.6-0.2-2.4-0.5c-1.4-0.6-1.7-1.4-0.8-2.7c1.2-1.6,2.4-3.2,3.6-4.8
	c2.6-3.4,5.3-6.7,7.9-10.2c1.6-2.2,3.7-2.3,5.3-0.2c2.8,3.6,5.6,7.3,8.4,10.9c1,1.3,2.1,2.6,3.1,3.9c0.5,0.7,1,1.5,0.5,2.4
	c-0.5,0.9-1.3,1-2.2,1c-4.3,0-8.7,0-13,0C644.7,119.5,644.7,119.6,644.7,119.6z"/>
<path class="st0" d="M644.4,37.7c8.6,0,17.3,0,25.9,0c1.6,0,2.8,1,2.9,2.3c0,1.5-1.1,2.6-2.8,2.7c-0.8,0-1.6,0-2.5,0
	c-16.1,0-32.2,0-48.3-0.1c-0.9,0-1.8-0.2-2.6-0.5c-1-0.4-1.5-1.6-1.3-2.3c0.3-1.1,1.5-2,2.5-2c3.3,0,6.6,0,9.9,0
	C633.6,37.7,639,37.7,644.4,37.7z"/>
<path class="st0" d="M645.2,64.3c2.8,0,5.6-0.1,8.4,0c1.7,0.1,2.2,1.1,1.2,2.6c-1.1,1.5-2.3,3-3.4,4.4c-1.4,1.8-2.9,3.6-4.3,5.4
	c-1.1,1.4-2.5,1.4-3.6,0c-2-2.6-4.2-5.2-6.2-7.8c-0.7-0.9-1.2-1.9-1.8-2.8c-0.4-0.6-0.1-1,0.4-1.2c0.6-0.3,1.3-0.6,2-0.6
	c2.4-0.1,4.9,0,7.3,0C645.2,64.1,645.2,64.2,645.2,64.3z"/>
</svg>
