<?xml version="1.0" encoding="utf-8"?>
<!-- Generator: Adobe Illustrator 21.0.0, SVG Export Plug-In . SVG Version: 6.00 Build 0)  -->
<svg version="1.1" id="Layer_1" xmlns="http://www.w3.org/2000/svg" xmlns:xlink="http://www.w3.org/1999/xlink" x="0px" y="0px"
	 viewBox="0 0 720 161" style="enable-background:new 0 0 720 161;" xml:space="preserve">
<style type="text/css">
	.st0{fill:#5E6167;}
	.st1{fill:#9AA5AB;}
</style>
<path class="st0" d="M225.1,133.2c-1.5-0.2-3-0.4-4.5-0.6c-7.2-1-13.9-3.2-19.5-8.1c-5.7-5-9-11.3-10.1-18.7
	c-0.2-1.1-0.2-2.3-0.3-3.5c0-0.1,0-0.3,0-0.5c3.9-0.3,7.7-0.7,11.5-1c0.4,1.7,0.7,3.4,1.1,5.1c1.6,6,5.2,10.4,10.8,13
	c9.7,4.5,19.5,4.8,29.3,0.7c4.5-1.8,7.6-5.1,8.9-9.8c1.4-5.2-0.4-10.3-4.8-13.4c-2.9-2.1-6.3-3.3-9.7-4.2
	c-6.8-1.8-13.7-3.5-20.5-5.4c-4.2-1.1-8.2-2.6-11.9-4.8c-12.6-7.6-13.5-21.8-7.5-31.6c3.5-5.7,8.8-9.1,15.1-11
	c3.1-0.9,6.3-1.3,9.4-1.9c0.2,0,0.4-0.1,0.5-0.2c2.6,0,5.2,0,7.8,0c1.5,0.2,3.1,0.4,4.6,0.6c7,1.1,13.5,3.4,18.7,8.6
	c4.9,4.9,7.2,10.8,7.7,17.6c0,0.3,0,0.5,0,0.9c-3.9,0.3-7.7,0.5-11.6,0.8c-0.3-1.3-0.5-2.6-0.8-3.8c-1.8-6.8-6.1-11.2-13-12.8
	c-6.7-1.6-13.4-1.5-20,0.4c-3.3,0.9-6,2.9-8.1,5.7c-3.7,5.1-2.9,13.5,4.2,16.8c4.2,1.9,8.6,3.1,13,4.2c6.5,1.7,13.1,3.3,19.5,5.2
	c5.2,1.5,9.8,4.1,13.5,8.1c4.8,5.1,6.7,11.2,5.9,18c-1.3,11.8-8.3,19.1-19.1,23.1c-3.4,1.3-7,2-10.6,2.3c-0.2,0-0.4,0.1-0.5,0.2
	C231.1,133.2,228.1,133.2,225.1,133.2z"/>
<path class="st0" d="M35.9,38.9c4.1,0,8.1,0,12.3,0c0,27.3,0,54.6,0,81.9c15.3,0,30.5,0,45.7,0c0,3.7,0,7.2,0,10.9
	c-19.3,0-38.7,0-58,0C35.9,100.8,35.9,69.9,35.9,38.9z"/>
<path class="st1" d="M393.8,49.8c0-3.7,0-7.2,0-10.9c0.4,0,0.8,0,1.1,0c11.6,0,23.1,0,34.7,0c5.5,0,10.9,0.5,15.9,2.8
	c7.6,3.4,12.1,9.4,13.4,17.5c1.2,7.2-1,13.4-6.1,18.5c-1.5,1.5-3.5,2.6-5.3,3.9c-0.3,0.2-0.6,0.3-1,0.6c1.4,0.6,2.7,1,4,1.6
	c7.5,3.5,12,9.3,13,17.5c1.1,8.4-1.3,15.9-7,22.2c-2.7,3-6.2,4.7-9.9,5.9c-3.8,1.3-7.8,2-11.8,2.1c-13.4,0.1-26.9,0.2-40.3,0.2
	c-0.2,0-0.4,0-0.7,0c0-17.9,0-35.8,0-53.8c0.4,0,0.8,0,1.2,0c11.4,0,22.8,0,34.2-0.1c3.4,0,6.8-0.3,10.1-1.6c4.7-1.8,7.7-5.9,7.8-11
	c0.1-2.4-0.1-4.8-1-7.2c-1.9-4.7-5.6-7.2-10.5-7.7c-3.6-0.4-7.2-0.6-10.8-0.6c-9.9-0.1-19.9,0-29.8,0
	C394.7,49.8,394.3,49.8,393.8,49.8z M406.1,120.8c0.3,0,0.5,0.1,0.7,0.1c8.6,0,17.1,0,25.7-0.1c2.2,0,4.5-0.3,6.7-0.8
	c3.1-0.6,5.8-1.9,8-4.3c3-3.4,4-7.4,3.9-11.9c-0.2-6.1-4-11.4-9.8-13.3c-3.9-1.3-7.9-1.6-11.9-1.6c-7.4-0.1-14.8,0-22.2,0
	c-0.3,0-0.7,0-1,0.1C406.1,99.6,406.1,110.2,406.1,120.8z"/>
<path class="st1" d="M516.8,39c0.3,0,0.6-0.1,0.8-0.1c11.8,0,23.6-0.1,35.4,0.1c5.4,0.1,10.8,0.5,16,2.4c7.7,2.7,13.3,7.9,17.5,14.8
	c3.5,5.9,5.4,12.4,6.2,19.2c1.1,9,0.9,18-1.5,26.8c-2,7.6-5.3,14.4-11,20c-4.4,4.4-9.9,6.8-15.8,8.2c-4,0.9-8.2,1.4-12.3,1.4
	c-11.5,0.1-23,0-34.5,0c-0.3,0-0.5,0-0.9,0C516.8,100.8,516.8,70,516.8,39z M529,49.8c0,23.8,0,47.4,0,71.1c0.4,0,0.7,0,1,0
	c6.2,0,12.5,0.1,18.7,0c3.6-0.1,7.3-0.3,10.9-0.8c7.1-1.1,12.5-4.8,16-11.2c3.3-6.1,4.7-12.7,5-19.5c0.2-4.9,0.2-9.9-0.6-14.8
	c-0.8-5.1-2.3-9.9-5.3-14.2c-3.3-4.6-7.4-8.3-13.1-9.4c-3.5-0.7-7.1-1-10.7-1.1c-7-0.2-14-0.1-21-0.1
	C529.7,49.8,529.4,49.8,529,49.8z"/>
<path class="st0" d="M305,49.8c-10.3,0-20.4,0-30.5,0c0-3.6,0-7.2,0-10.8c24.4,0,48.9,0,73.4,0c0,3.6,0,7.2,0,10.8
	c-10.2,0-20.4,0-30.6,0c0,27.3,0,54.6,0,81.9c-4.1,0-8.1,0-12.2,0C305,104.5,305,77.2,305,49.8z"/>
<path class="st1" d="M482.8,39c4.1,0,8.1,0,12.1,0c0,30.9,0,61.8,0,92.7c-4,0-8,0-12.1,0C482.8,100.8,482.8,70,482.8,39z"/>
<path class="st0" d="M98.4,131.8c1.7-4.4,3.3-8.6,4.9-12.9c10.1-26.3,20.2-52.7,30.3-79c0.3-0.7,0.6-1,1.4-1c3.8,0,7.5,0.1,11.3,0
	c0.8,0,1.2,0.3,1.5,1c12.3,30.2,24.7,60.5,37,90.7c0.1,0.3,0.3,0.7,0.4,1.1c-2,0-3.8,0-5.7,0c-2.5,0-4.9,0-7.4,0
	c-0.7,0-1-0.2-1.3-0.9c-2.9-7.6-5.8-15.2-8.7-22.8c-5.5-14.5-11-28.9-16.4-43.4c-1.9-5.2-3.7-10.5-5.5-15.7
	c-0.4,1.8-0.9,3.8-1.4,5.7c-1.9,7.9-5,15.3-7.8,22.9c-1.6,4.2-3.2,8.4-4.7,12.7c-2,5.5-4.1,11-6.1,16.5c-2.9,8-5.7,16.1-8.6,24.1
	c-0.2,0.6-0.5,0.9-1.2,0.9C106.6,131.7,102.6,131.8,98.4,131.8z"/>
</svg>
